<?xml version="1.0" standalone="no"?>
<!DOCTYPE svg PUBLIC "-//W3C//DTD SVG 20010904//EN"
 "http://www.w3.org/TR/2001/REC-SVG-20010904/DTD/svg10.dtd">
<svg version="1.0" xmlns="http://www.w3.org/2000/svg"
 width="2048.000000pt" height="2048.000000pt" viewBox="0 0 2048.000000 2048.000000"
 preserveAspectRatio="xMidYMid meet">

<g transform="translate(0.000000,2048.000000) scale(0.100000,-0.100000)"
fill="#000000" stroke="none">
<path d="M4960 14122 l0 -58 106 -13 c134 -15 282 -53 360 -91 64 -31 149
-110 189 -175 35 -58 63 -148 75 -245 7 -56 10 -865 10 -2392 l0 -2307 43 -11
c163 -41 414 -143 669 -271 120 -60 222 -109 228 -109 7 0 10 235 10 719 l0
719 23 5 c114 28 878 33 1072 7 192 -26 391 -81 540 -151 l70 -32 -73 -8
c-348 -39 -616 -217 -722 -482 -41 -103 -52 -159 -53 -262 0 -173 53 -307 170
-424 40 -41 76 -72 78 -69 3 3 0 19 -6 37 -6 17 -9 67 -8 110 9 196 165 343
379 358 191 14 376 -92 455 -260 167 -349 -17 -742 -405 -865 -252 -80 -575
-47 -950 98 -47 18 -204 94 -350 168 -852 435 -1004 500 -1312 562 -546 110
-1070 -38 -1434 -406 -106 -107 -174 -187 -143 -169 7 5 39 25 69 45 176 117
417 212 641 255 135 25 337 36 478 25 263 -21 460 -69 731 -177 201 -80 278
-118 679 -336 172 -94 377 -199 455 -235 178 -81 392 -152 566 -188 122 -25
155 -28 350 -28 243 0 337 14 516 79 240 87 429 232 552 424 58 91 120 232
144 327 30 124 31 313 0 436 -52 209 -172 386 -345 509 -273 192 -671 186
-937 -15 -120 -90 -195 -195 -230 -321 l-17 -60 -7 45 c-8 57 8 173 33 240 63
167 218 314 399 380 567 207 1177 -137 1313 -740 139 -620 -231 -1231 -881
-1451 -174 -60 -280 -74 -540 -74 -218 1 -244 3 -364 28 -150 32 -404 115
-560 182 -196 84 -341 162 -701 375 -163 97 -386 213 -535 281 -404 182 -835
247 -1175 177 l-60 -12 172 -13 c260 -19 461 -70 738 -188 214 -92 376 -180
830 -455 583 -352 909 -504 1300 -605 165 -42 309 -64 483 -71 483 -22 902
122 1201 410 259 251 398 561 417 931 22 417 -129 817 -425 1128 -218 229
-529 408 -901 520 -386 117 -776 165 -1235 154 -126 -3 -252 -11 -280 -16 -27
-6 -61 -13 -75 -16 -50 -11 30 32 150 80 139 56 317 103 545 145 413 76 631
165 810 332 188 176 276 390 263 641 -15 275 -200 544 -442 641 -203 81 -450
75 -634 -15 -157 -77 -294 -233 -323 -368 -20 -91 -28 -93 -29 -6 0 148 49
270 154 382 317 340 965 272 1251 -132 295 -416 199 -972 -222 -1289 -153
-115 -365 -208 -540 -237 -40 -7 -73 -16 -73 -22 0 -14 290 -1 405 18 445 74
753 365 847 800 20 98 16 314 -10 417 -53 215 -141 369 -291 510 -180 169
-401 265 -667 288 -216 19 -394 -13 -568 -103 -82 -42 -117 -67 -187 -137 -93
-92 -141 -167 -180 -285 -33 -98 -34 -268 -1 -372 28 -90 93 -187 157 -235 43
-32 173 -93 181 -85 2 2 -10 22 -25 46 -41 61 -54 119 -49 204 16 255 283 434
560 376 175 -37 320 -181 357 -357 42 -199 -37 -408 -208 -548 -133 -110 -314
-183 -644 -260 -318 -74 -539 -144 -676 -213 l-41 -21 0 412 c-1 227 -3 752
-5 1166 l-5 753 637 -4 c555 -3 650 -6 728 -21 257 -50 516 -184 611 -316 19
-27 63 -69 97 -93 182 -130 324 -329 401 -558 43 -131 58 -224 58 -374 0 -92
-6 -167 -17 -220 -78 -375 -294 -661 -619 -821 -49 -24 -96 -44 -104 -44 -30
0 0 -14 67 -31 110 -28 337 -116 463 -181 215 -109 375 -225 528 -384 113
-117 170 -189 243 -310 73 -119 91 -157 143 -290 152 -395 162 -803 29 -1200
-69 -209 -164 -373 -307 -536 -466 -528 -1334 -673 -2243 -374 -391 129 -743
310 -1245 641 -606 399 -879 538 -1231 625 -164 40 -288 54 -437 47 -115 -4
-347 -40 -364 -56 -4 -3 46 -5 110 -3 205 6 435 -34 647 -113 280 -104 525
-248 1010 -595 110 -79 263 -188 340 -244 583 -416 1090 -661 1530 -736 311
-53 661 -46 995 21 615 123 1089 419 1391 868 171 254 271 518 315 836 25 183
15 537 -20 697 -122 567 -439 981 -944 1237 -140 70 -313 138 -412 161 l-54
13 111 52 c243 115 415 255 541 444 165 246 239 554 212 884 -16 209 -55 349
-148 531 -190 374 -531 621 -1017 736 -312 74 -433 82 -1295 89 l-745 6 -1
475 c-1 261 -2 535 -3 608 l-1 132 -840 0 -840 0 0 -58z"/>
<path d="M10850 10206 l0 -886 150 0 150 0 0 259 0 260 333 3 c330 4 333 4
413 31 252 84 404 302 404 579 0 300 -153 520 -425 609 -68 23 -81 23 -547 27
l-478 3 0 -885z m960 571 c66 -34 91 -57 130 -117 117 -182 49 -440 -139 -529
-56 -26 -56 -26 -353 -29 l-298 -3 0 356 0 356 303 -3 302 -3 55 -28z"/>
<path d="M13119 11069 c-17 -32 -180 -401 -304 -689 -68 -157 -175 -404 -237
-550 -63 -146 -130 -303 -148 -350 -17 -47 -41 -102 -51 -122 l-19 -38 88 0
c49 0 122 -3 163 -6 l75 -7 56 134 c31 74 64 151 72 172 l15 37 463 0 463 -1
44 -112 c24 -62 54 -136 67 -164 l23 -53 167 0 c129 0 165 3 161 13 -3 6 -44
102 -90 212 -137 326 -284 669 -362 845 -40 91 -116 262 -168 380 -135 305
-136 308 -166 314 -14 3 -88 5 -164 4 -120 -1 -139 -4 -148 -19z m254 -506
c41 -98 112 -268 157 -378 45 -110 91 -217 101 -237 l19 -38 -355 0 c-195 0
-355 4 -355 8 0 5 77 187 170 406 94 219 170 402 170 407 0 35 27 -15 93 -168z"/>
<path d="M14247 11083 c-4 -3 -7 -66 -7 -140 l0 -133 280 0 280 0 0 -747 0
-748 150 3 150 3 1 202 c0 111 2 441 5 732 2 292 4 536 4 543 0 9 63 12 280
12 l280 0 0 140 0 140 -708 0 c-390 0 -712 -3 -715 -7z"/>
<path d="M5700 7153 c0 -351 -86 -523 -299 -600 -81 -30 -230 -61 -325 -69
-120 -9 -116 -7 -116 -69 l0 -55 1103 0 1102 1 -142 58 c-314 130 -647 337
-1202 749 -58 42 -108 79 -113 80 -4 2 -8 -41 -8 -95z"/>
</g>
</svg>
