<?xml version="1.0" standalone="no"?>
<!DOCTYPE svg PUBLIC "-//W3C//DTD SVG 20010904//EN"
 "http://www.w3.org/TR/2001/REC-SVG-20010904/DTD/svg10.dtd">
<svg version="1.0" xmlns="http://www.w3.org/2000/svg"
 width="2048.000000pt" height="2048.000000pt" viewBox="0 0 2048.000000 2048.000000"
 preserveAspectRatio="xMidYMid meet">

<g transform="translate(0.000000,2048.000000) scale(0.100000,-0.100000)"
fill="#000000" stroke="none">
<path d="M0 10240 l0 -10240 10240 0 10240 0 0 10240 0 10240 -10240 0 -10240
0 0 -10240z m10275 2928 c22 -29 93 -117 158 -196 l117 -144 -2 173 -3 174
-35 17 -35 18 95 0 c89 -1 93 -2 64 -14 -18 -8 -34 -18 -37 -24 -4 -5 -7 -111
-7 -235 -1 -125 -5 -229 -10 -232 -11 -7 -98 89 -237 262 l-118 147 -3 -169
c-1 -93 0 -175 3 -183 2 -7 19 -19 37 -27 46 -19 21 -27 -73 -23 -73 3 -74 3
-44 18 16 8 32 26 36 40 4 14 7 110 8 213 l1 188 -35 20 c-19 12 -35 23 -35
25 0 2 26 4 58 4 l58 0 39 -52z m149 -938 c124 -972 157 -1229 275 -2155 12
-88 23 -175 25 -192 6 -40 -9 -44 -19 -6 -14 58 -64 123 -188 248 l-130 130
-104 -110 c-120 -127 -175 -204 -199 -280 l-17 -53 29 -59 c32 -63 138 -174
236 -246 l58 -42 2 -645 c4 -1396 4 -1550 -3 -1542 -3 4 -32 194 -63 422 -32
228 -60 423 -63 434 -5 17 -14 18 -145 14 l-139 -5 3 55 3 55 65 14 c71 14
159 40 179 52 10 7 -1 119 -53 532 -37 288 -82 625 -101 748 -19 122 -33 226
-31 230 11 17 134 992 275 2176 66 548 64 532 67 515 2 -8 19 -139 38 -290z
m1811 -480 c65 -162 163 -403 217 -535 55 -132 161 -391 235 -575 75 -184 199
-490 276 -680 77 -190 202 -500 279 -690 209 -517 283 -688 330 -760 88 -135
213 -224 352 -250 l67 -12 -3 -52 -3 -51 -740 0 -740 0 0 50 0 49 73 13 c204
34 285 109 285 262 -1 85 -13 124 -139 447 -58 148 -132 340 -166 427 l-61
157 -713 0 c-560 0 -713 -3 -717 -12 -97 -240 -330 -842 -346 -892 -28 -92
-28 -195 0 -253 35 -73 127 -121 263 -138 l57 -7 -3 -52 -3 -51 -240 -3 c-132
-1 -245 0 -251 2 -8 3 -7 30 3 98 7 51 27 210 43 353 26 231 33 270 64 350 67
176 165 424 285 720 68 165 153 379 191 475 116 294 181 457 369 925 99 247
181 459 181 471 0 33 -72 136 -116 166 -42 28 -102 48 -146 48 -27 0 -28 2
-28 54 l0 53 53 7 c99 12 243 50 452 121 116 39 213 68 216 65 4 -3 59 -138
124 -300z m1750 240 c181 -35 530 -42 1764 -35 1156 6 1209 8 1412 50 39 8 76
15 83 15 16 0 21 -39 71 -530 19 -190 39 -376 43 -413 5 -37 6 -69 3 -71 -3
-2 -28 -7 -56 -10 l-50 -7 -43 118 c-124 345 -345 571 -628 643 -124 32 -225
40 -506 40 l-268 0 0 -1592 c0 -1374 2 -1602 15 -1656 19 -81 37 -114 91 -172
56 -59 137 -97 244 -112 l81 -12 -3 -51 -3 -50 -740 2 -740 1 -3 50 -3 51 48
6 c251 33 367 131 393 335 6 45 10 695 10 1639 l0 1563 -307 -7 c-246 -5 -328
-11 -408 -26 -236 -47 -412 -167 -552 -376 -53 -80 -140 -261 -165 -345 l-12
-40 -49 6 c-27 3 -51 7 -53 9 -2 2 5 73 16 158 10 85 38 309 60 499 23 190 43
350 45 357 3 9 15 9 52 -2 26 -7 98 -23 158 -35z m-9096 -53 c340 -55 538
-143 697 -310 65 -68 93 -107 129 -180 62 -127 77 -189 82 -347 4 -113 2 -149
-16 -222 -81 -340 -334 -559 -755 -653 -15 -3 -27 -8 -24 -10 2 -2 57 -16 123
-30 527 -114 837 -365 947 -766 20 -72 23 -107 23 -249 0 -141 -4 -178 -23
-250 -76 -278 -247 -482 -517 -618 -115 -57 -335 -116 -535 -144 -58 -8 -409
-12 -1122 -14 l-1038 -3 0 54 0 54 38 6 c181 30 261 73 315 172 60 111 57 32
57 1620 0 1042 -3 1467 -11 1505 -37 171 -138 262 -322 289 l-77 11 0 55 0 54
963 -4 c838 -3 975 -6 1066 -20z m3776 0 c236 -38 341 -70 498 -148 279 -139
455 -353 533 -646 65 -244 41 -534 -61 -751 -59 -125 -115 -201 -222 -302
-162 -154 -377 -255 -650 -306 -138 -25 -458 -29 -613 -7 l-125 18 -3 69 -3
68 108 -7 c118 -7 273 5 368 30 89 23 216 88 285 146 215 179 333 511 301 849
-35 372 -198 639 -462 759 -156 71 -304 90 -687 91 l-252 0 2 -1627 3 -1628
22 -58 c52 -137 163 -210 351 -232 l63 -7 -3 -52 -3 -51 -732 -2 -733 -1 0 52
0 53 78 13 c151 24 233 72 284 167 61 111 58 32 58 1623 0 1566 2 1509 -50
1610 -52 101 -148 162 -290 182 l-80 12 0 54 0 53 958 -4 c827 -3 971 -6 1057
-20z m1786 -1992 c60 -31 88 -125 55 -183 -48 -87 -186 -79 -227 12 -24 52
-23 61 1 112 33 67 106 92 171 59z m9181 -8637 c73 -34 142 -103 176 -176 22
-48 27 -71 27 -142 0 -71 -5 -94 -27 -142 -34 -72 -103 -142 -176 -176 -56
-27 -60 -27 -272 -27 -212 0 -216 0 -272 27 -73 34 -142 104 -176 176 -22 48
-27 71 -27 142 0 71 5 94 27 142 44 96 137 173 235 198 21 5 126 8 233 7 188
-2 197 -3 252 -29z"/>
<path d="M11693 11122 c-45 -114 -161 -407 -258 -652 -97 -245 -204 -516 -239
-602 l-64 -158 649 0 c357 0 649 2 649 5 0 2 -74 192 -165 422 -91 230 -216
544 -277 698 -145 367 -199 495 -207 495 -3 0 -43 -94 -88 -208z"/>
<path d="M3889 11798 c0 -2 -3 -344 -5 -760 l-5 -758 293 0 c312 0 422 10 553
50 222 69 360 218 427 461 19 72 23 107 23 249 -1 180 -13 250 -65 366 -111
247 -291 358 -622 384 -107 8 -597 14 -599 8z"/>
<path d="M3880 9214 l0 -907 373 6 c401 6 511 16 652 62 211 69 359 191 448
371 75 149 103 297 94 498 -15 347 -170 610 -440 746 -188 95 -431 130 -899
130 l-228 0 0 -906z"/>
<path d="M19460 1175 c-17 -21 -4 -62 22 -71 16 -5 27 -1 40 16 22 27 22 34 2
54 -20 20 -48 20 -64 1z"/>
<path d="M19208 1064 c-32 -17 -35 -32 -11 -49 14 -10 21 -10 39 2 30 20 73
13 91 -14 15 -22 15 -22 -41 -21 -43 1 -63 -3 -84 -19 -46 -34 -42 -112 8
-138 37 -19 57 -19 95 1 19 10 31 11 33 5 2 -6 17 -11 33 -11 l29 0 0 101 c0
98 -1 101 -29 130 -25 25 -37 29 -83 29 -29 -1 -65 -8 -80 -16z m100 -130 c16
-5 22 -13 20 -28 -6 -39 -79 -55 -92 -20 -10 27 4 45 44 53 3 0 15 -2 28 -5z"/>
<path d="M19460 951 l0 -131 35 0 36 0 -3 128 -3 127 -32 3 -33 3 0 -130z"/>
</g>
</svg>
